<?xml version="1.0" encoding="UTF-8"?>
<svg id="Layer_2" data-name="Layer 2" xmlns="http://www.w3.org/2000/svg" viewBox="0 0 496.13 262.58">
  <defs>
    <style>
      .cls-1 {
        fill: #fff;
        stroke-width: 0px;
      }
    </style>
  </defs>
  <g id="Layer_1-2" data-name="Layer 1">
    <g>
      <path class="cls-1" d="M245.63,66.41c-8.54-14.8-19-28.02-33.13-38h0s0,0,0,0c-1.37-2.97-4.4-3.93-6.84-5.56C175.67,2.84,142.9-4.03,107.4,2.25,19.95,17.72-26.86,116.7,16.26,194.64c7.75,14,18.18,25.7,29.44,36.81,1.37.89,2.83,1.66,4.08,2.68,10,8.17,21.12,14.38,33.05,19.26,22.44,9.18,45.71,10.74,69.48,7.71,2.57-.33,4.54-1.13,4.88-4.93.86-9.67.64-19.23-.52-28.81-.34-2.82-2.01-3.95-4.72-4.09-3.52-.18-6.93.74-10.4.92-24.21,1.26-46.41-4.57-66.11-19.03-1.34-.99-2.82-1.85-2.83-3.82,1.45-1.8,2.87-3.62,4.34-5.41,12.83-15.64,25.66-31.29,38.52-46.92,15.4-18.72,31.03-37.26,46.15-56.2,9.83-12.31,19.71-24.57,29.88-36.6,14.37,11.75,24.9,26.27,30.88,43.88,4.32,12.71,5.82,25.88,5.21,39.26-.17,3.74,1.27,5.95,5.05,5.67,7.79-.56,15.5.16,23.21,1.08,4.6.55,6.55-1.07,6.78-5.54,1.38-26.34-3.77-51.21-17-74.16Z"/>
      <path class="cls-1" d="M360.75,228.24c0-2.67,0-5.33,0-8-.31-.01-.62-.03-.93-.04-5.88,9.2-11.75,18.41-18.12,28.38-6.46-10.35-12.39-19.87-19.08-30.6,0,14.79.03,28.18-.03,41.56-.01,2.75,1.65,2.74,3.61,2.77,2.08.03,3.56-.28,3.5-2.92-.11-4.74-.03-9.48-.03-14.22.34-.11.68-.22,1.02-.33,3.54,5.43,7.07,10.85,10.91,16.74,4-6.32,7.62-12.05,11.25-17.77.83,5.09.88,9.74.81,14.39-.03,2.36.02,4.15,3.3,4.18,3.24.03,3.88-1.33,3.84-4.19-.12-9.98-.05-19.97-.05-29.95Z"/>
      <path class="cls-1" d="M496.13,220.77c-8.17-1.47-8.19-1.43-11.11,5.38-1.76,4.11-3.61,8.18-5.78,13.07-2.62-5.88-5.13-10.79-6.99-15.93-1.71-4.73-5.69-3.76-8.22-2.76-3.25,1.29-.07,3.85.63,5.66,1.26,3.25,3.13,6.26,4.49,9.47,3.06,7.26,7.93,14.01,6.4,22.61-.43,2.38.09,4.08,3.31,4.11,3.25.04,4.16-1.33,3.78-4.18-.87-6.59,1.31-12.33,4.35-18.05,3.34-6.27,6.1-12.86,9.15-19.39Z"/>
      <path class="cls-1" d="M243.42,254.25c-3.15.23-6.34-.15-9.48.1-3.37.27-4.27-1.12-4.21-4.31.17-8.82,0-17.65.09-26.48.03-2.65-1.09-3.45-3.58-3.45-2.43,0-3.7.61-3.64,3.35.13,5.83.04,11.66.04,17.48,0,5.83.15,11.66-.06,17.48-.11,3.15,1.08,4.02,4.06,3.92,5.66-.18,11.33-.18,16.98,0,2.95.09,4.09-.74,4.12-3.9.03-3.32-1.07-4.44-4.31-4.2Z"/>
      <path class="cls-1" d="M438.9,220.11c-5.66.16-11.32.1-16.99.02-2.54-.03-4.5,0-4.5,3.55,0,3.26,1.4,4.13,4.23,3.78,3.77-.46,5.03,1.26,4.83,4.91-.23,4.15-.05,8.32-.05,12.49,0,4.66.1,9.33-.04,13.99-.07,2.58.88,3.48,3.47,3.53,2.79.05,3.81-.84,3.77-3.71-.14-8.66.16-17.33-.14-25.97-.15-4.15,1.08-5.87,5.27-5.24,2.67.4,3.92-.6,3.89-3.56-.03-2.78-.9-3.85-3.75-3.77Z"/>
      <path class="cls-1" d="M394.56,223.53c.03-3.04-1.16-4.11-4.13-4.12-3.24,0-3.86,1.67-3.81,4.42.11,5.65.03,11.31.03,16.96,0,5.99.13,11.98-.05,17.96-.09,3,1.24,3.66,3.89,3.59,2.42-.06,4.11-.2,4.08-3.4-.13-11.81-.11-23.62,0-35.42Z"/>
      <path class="cls-1" d="M184.32,217.65c-1.51,3.95-2.57,6.72-3.63,9.49-3.98,10.4-7.85,20.84-11.99,31.18-1.51,3.76.06,4.12,3.2,4.04,2.07-.06,2.88-1.11,3.64-2.73,1.11-2.37,1.03-5.86,5.23-5.44,2.8.28,5.65.07,8.47.25,1.2.08,1.47,1.33,1.62,2.27,1,6.21,5.09,6.37,10.34,5.1-5.51-14.42-10.99-28.75-16.88-44.15ZM186.22,246.78c-1.48.77-3.35.85-4.78-.03-1.59-.98-.3-2.42.11-3.54.66-1.8.69-3.92,2.64-5.48.74,1.99,1.46,3.78,2.05,5.61.37,1.13,1.76,2.5-.02,3.44Z"/>
      <path class="cls-1" d="M299.9,259.04c-5.09-13.33-10.21-26.65-15.86-41.37-5.62,14.71-10.76,28.18-15.94,41.64-.89,2.31.04,2.9,2.22,3.02,2.63.15,4.72-.33,5.16-3.29.62-4.21,3.09-4.98,7-4.95,4.67.04,8.23.23,9.44,5.99.81,3.89,4.73,2.09,7.27,2,2.16-.08,1.15-1.88.71-3.05ZM285.74,246.66c-.78,1.13-3.8,1.16-4.45-.12-1.47-2.92.66-5.41,2.54-9.13,1.19,3.89,3.92,6.32,1.91,9.25Z"/>
    </g>
  </g>
</svg>